<?xml version="1.0" standalone="no"?>
<!DOCTYPE svg PUBLIC "-//W3C//DTD SVG 20010904//EN"
 "http://www.w3.org/TR/2001/REC-SVG-20010904/DTD/svg10.dtd">
<svg version="1.0" xmlns="http://www.w3.org/2000/svg"
 width="260.000000pt" height="260.000000pt" viewBox="0 0 260.000000 260.000000"
 preserveAspectRatio="xMidYMid meet">
<metadata>
Created by potrace 1.11, written by Peter Selinger 2001-2013
</metadata>
<g transform="translate(0.000000,260.000000) scale(0.100000,-0.100000)"
fill="#000000" stroke="none">
<path d="M880 1486 c-107 -107 -197 -202 -198 -211 -5 -24 185 -215 214 -215
11 0 23 3 26 6 3 3 -26 59 -64 125 -85 144 -84 147 24 209 40 24 122 71 182
106 60 35 114 65 120 68 11 4 -88 106 -102 106 -4 0 -95 -88 -202 -194z"/>
<path d="M1900 1246 c0 -3 14 -12 30 -21 17 -9 30 -13 30 -11 0 3 -13 12 -30
21 -16 9 -30 13 -30 11z"/>
<path d="M1993 1190 c15 -12 27 -27 27 -34 0 -6 -12 -19 -27 -28 -16 -10 -23
-18 -18 -18 6 0 23 11 39 23 33 27 30 40 -17 63 l-32 15 28 -21z"/>
<path d="M1884 1064 c-18 -14 -18 -15 4 -4 12 6 22 13 22 15 0 8 -5 6 -26 -11z"/>
<path d="M1070 955 c0 -8 -8 -15 -19 -15 -26 0 -43 -24 -39 -57 3 -25 7 -28
41 -30 l37 -1 0 59 c0 33 -4 59 -10 59 -5 0 -10 -7 -10 -15z m0 -60 c0 -25
-23 -35 -35 -15 -10 16 2 40 20 40 9 0 15 -9 15 -25z"/>
<path d="M635 915 c4 -56 10 -65 44 -65 38 0 51 17 51 67 0 56 -18 56 -22 1
-2 -36 -7 -44 -25 -46 -21 -3 -23 1 -23 42 0 33 -4 46 -14 46 -10 0 -13 -12
-11 -45z"/>
<path d="M1170 905 c0 -42 3 -55 15 -55 8 0 15 9 15 19 0 12 8 21 21 23 27 4
44 30 36 52 -4 11 -19 16 -47 16 l-40 0 0 -55z m60 19 c0 -8 -7 -14 -15 -14
-8 0 -15 9 -15 20 0 13 5 18 15 14 8 -4 15 -12 15 -20z"/>
<path d="M760 894 c0 -24 5 -44 10 -44 6 0 10 14 10 30 0 20 5 30 15 30 26 0
16 25 -10 26 -23 2 -25 -1 -25 -42z"/>
<path d="M830 930 c0 -5 10 -10 22 -10 21 0 21 -1 -5 -28 -15 -15 -27 -31 -27
-35 0 -4 18 -7 40 -7 22 0 40 5 40 10 0 6 -10 10 -22 10 l-21 0 21 23 c31 33
28 47 -13 47 -19 0 -35 -4 -35 -10z"/>
<path d="M920 931 c0 -6 12 -11 28 -11 27 -1 27 -1 -6 -15 -39 -17 -41 -46 -4
-55 13 -3 22 -9 20 -15 -2 -5 6 -11 17 -13 17 -3 17 -1 5 7 -12 9 -13 13 -2
20 8 5 12 23 10 47 -3 36 -6 39 -35 42 -19 2 -33 -1 -33 -7z m50 -50 c0 -14
-18 -23 -30 -16 -6 4 -8 11 -5 16 8 12 35 12 35 0z"/>
<path d="M1275 932 c-3 -3 -5 -23 -5 -44 0 -27 4 -38 15 -38 10 0 15 10 15 30
0 20 5 30 15 30 8 0 15 6 15 14 0 13 -43 20 -55 8z"/>
<path d="M1345 930 c-4 -6 6 -10 22 -10 l28 -1 -28 -15 c-40 -22 -32 -48 16
-52 36 -3 37 -2 37 30 0 19 -5 39 -12 46 -15 15 -54 16 -63 2z m45 -55 c-12
-15 -30 -12 -30 6 0 5 10 9 21 9 18 0 19 -2 9 -15z"/>
<path d="M1444 919 c-26 -29 -5 -69 36 -69 16 0 30 5 30 10 0 6 -6 10 -12 9
-30 -4 -39 2 -36 24 2 16 9 22 26 21 12 0 22 4 23 10 0 6 9 -8 19 -32 11 -23
16 -50 13 -58 -4 -11 -2 -15 6 -13 7 3 24 30 36 62 19 45 21 57 9 57 -7 0 -16
-11 -20 -25 -8 -32 -20 -32 -28 -1 -5 20 -12 24 -45 24 -26 1 -45 -6 -57 -19z"/>
</g>
</svg>
